<svg version="1.1" id="tshirt" xmlns="http://www.w3.org/2000/svg" width="100%" height="auto" viewBox="0 0 240 300" fill="#fff" stroke="#000">
    <path id="tshirtFill" fill="#fff" d="M90,40 60,50 0,100 40, 140 50,130 40,270 C40,270 120,290 200, 270 L190, 130 200, 140 240,100 180, 50 150, 40 C150,40 120, 60 90,40 M90,45 C90,45 120, 80 150,45 C150,45 120, 67 90, 45" />
    <path stroke="#0004" d="M50, 130 60, 50 M180, 50 190, 130" />
    <path stroke="#000a" fill="#000d" d="M90, 45C90,45 120, 80, 150,45 C150,45 120, 67 90, 45" />
    <path stroke="none" fill="#0002" d="M160, 80 C160, 80 190, 120 70, 200 C70, 200 200, 140 160, 80" />
    <path stroke="none" fill="#0003" d="M180, 180 C180, 180 190, 210 60, 250 C60, 250 200, 230 180, 180" />
    <path fill="none" stroke="#000" d="M 85,45 C 85,45 120,89 155,45" />
</svg>